<svg width="128" height="128" viewBox="0 0 128 128" fill="none" xmlns="http://www.w3.org/2000/svg">
  <rect width="128" height="128" rx="32" fill="#FFF9F0"/>
  <path d="M64 20C72.5 20 79 26.5 79 35C79 43.5 72.5 50 64 50C55.5 50 49 43.5 49 35C49 26.5 55.5 20 64 20Z" fill="#E94E6F"/>
  <path d="M64 67C77 67 88 78 88 91C88 98.4 84.2 104.8 78.5 108.6C74.3 111.5 69.1 113 64 113C58.9 113 53.7 111.5 49.5 108.6C43.8 104.8 40 98.4 40 91C40 78 51 67 64 67Z" fill="#FDC600"/>
  <path d="M92 44C99.5 44 105.5 50 105.5 57.5C105.5 65 99.5 71 92 71C84.5 71 78.5 65 78.5 57.5C78.5 50 84.5 44 92 44Z" fill="#0094A8" opacity="0.9"/>
</svg>
